<?xml version="1.0" encoding="utf-8"?>
<!-- Generator: Adobe Illustrator 25.4.1, SVG Export Plug-In . SVG Version: 6.00 Build 0)  -->
<svg version="1.1" id="Layer_1" xmlns="http://www.w3.org/2000/svg" xmlns:xlink="http://www.w3.org/1999/xlink" x="0px" y="0px"
	 viewBox="0 0 66.96 69.84" style="enable-background:new 0 0 66.96 69.84;" xml:space="preserve">
<style type="text/css">
	.st0{fill:#00263E;}
	.st1{fill:#ED1C24;}
	.st2{fill:#99999B;}
	.st3{fill:#FE8209;}
	.st4{fill:#B86528;}
	.st5{fill:#CCCCCC;}
	.st6{opacity:0.11;fill:#FFFFFF;}
	.st7{fill:#D6680D;}
	.st8{fill:#FED48D;}
	.st9{fill:#F1ECE5;}
	.st10{display:none;fill:none;stroke:#AD8971;stroke-width:0.25;stroke-miterlimit:10;}
</style>
<g>
	<g>
		<path class="st0" d="M45.1,24.26l0.42-1.05L51,9.17l-3.64,1.24c-2.96,1.01-5.59,3.55-5.7,3.66l-1.06,1.03l0.81,1.21
			c-1.47-0.52-3.7-1.88-4.47-2.69c0.07-0.05,0.15-0.11,0.23-0.14l1.09-0.44l0-1.16c0.08-3.03-2.78-6.89-3.35-7.64l-1.41-1.84
			l-1.41,1.84c-0.57,0.74-3.43,4.61-3.35,7.64l0,1.16l1.09,0.44c0.07,0.03,0.16,0.09,0.23,0.14c-0.77,0.81-3,2.17-4.47,2.69
			l0.81-1.21l-1.06-1.03c-0.11-0.11-2.74-2.65-5.7-3.66l-3.64-1.24l5.48,14.04l0.42,1.05c-0.29,0.12-0.59,0.29-0.86,0.52
			c-1.72,1.47-1.4,5.92,2.84,7.07c0,0-0.42,0.72-0.87,1.85l-0.06-0.01c-0.02,0.05-0.13,0.38-0.27,0.91
			c-0.91,2.69-1.54,6.79,1.43,9.73c0,0,0.17-0.88,0.43-1.66c0.88,1.93,2.27,4.1,4.37,5.31l1.99,1.15c0.61,0.55,1.32,0.99,2.16,1.22
			l0.48,0.13l0.48-0.13c0.84-0.23,1.55-0.68,2.16-1.22l1.99-1.15c2.1-1.21,3.49-3.38,4.37-5.31c0.26,0.78,0.43,1.66,0.43,1.66
			c2.97-2.94,2.34-7.05,1.43-9.73c-0.14-0.53-0.26-0.86-0.27-0.91L44,33.7c-0.45-1.13-0.87-1.85-0.87-1.85
			c4.24-1.15,4.56-5.59,2.84-7.07C45.69,24.55,45.4,24.39,45.1,24.26z"/>
		<path class="st1" d="M26.25,27.34c0,0,0.68,1.53,1.38,1.66c0.7,0.13,3.12,0,3.12,0S28.76,26.32,26.25,27.34z"/>
		<g>
			<path class="st2" d="M27.98,25.35c1.24,0.72,4.16,2.91,4.35,2.49c0.19-0.43,0.33-2.05-1-2.46c0,0,1.48,0.12,2.15,0.98
				c0.67-0.86,2.15-0.98,2.15-0.98c-1.34,0.41-1.2,2.03-1,2.46c0.19,0.43,3.11-1.77,4.35-2.49c1.24-0.72,2.63,0.19,2.63,0.19v-2.68
				c-4.45-1.48-8.13-1.15-8.13-1.15s-3.68-0.33-8.13,1.15v2.68C25.35,25.54,26.74,24.63,27.98,25.35z"/>
			<path class="st2" d="M41.89,27.89c0,0-1.2,2.58-1.86,2.58s-2.49-0.33-3.54-0.19l0.67,1.2c0,0-2.77-1.43-3.11-2.63
				c0,0-0.38-0.33-0.57-0.33c-0.19,0-0.57,0.33-0.57,0.33c-0.33,1.2-3.11,2.63-3.11,2.63l0.67-1.2c-1.05-0.14-2.87,0.19-3.54,0.19
				c-0.67,0-1.86-2.58-1.86-2.58s-1,1.09-1,1.95c0,0.86,2.34,3.92,2.34,3.92s2.06,0,2.63,0.53c0.57,0.53,1.34,0.62,1.34,0.62
				c-0.57-0.77,1.48-2.1,1.72-3.11s1.39-1.43,1.39-1.43s1.15,0.43,1.39,1.43c0.24,1,2.3,2.34,1.72,3.11c0,0,0.76-0.1,1.34-0.62
				c0.57-0.53,2.63-0.53,2.63-0.53s2.34-3.06,2.34-3.92C42.9,28.98,41.89,27.89,41.89,27.89z"/>
		</g>
		<path class="st3" d="M42.9,15.35c0.64,0.96,1.28,1.27,0.22,2.68c-1.05,1.4-7.87-2.61-8.06-4.08c-0.19-1.47,1.4-2.1,1.4-2.1
			c0.06-2.55-2.98-6.5-2.98-6.5s-3.04,3.95-2.98,6.5c0,0,1.59,0.64,1.4,2.1c-0.19,1.47-7.01,5.48-8.06,4.08
			c-1.05-1.4-0.41-1.72,0.22-2.68c0,0-2.42-2.36-5.04-3.25l4.08,10.46c0,0,3.92-2.36,10.38-2.36s10.38,2.36,10.38,2.36l4.08-10.46
			C45.32,13,42.9,15.35,42.9,15.35z"/>
		<path class="st1" d="M40.71,27.34c0,0-0.68,1.53-1.38,1.66c-0.7,0.13-3.12,0-3.12,0S38.2,26.32,40.71,27.34z"/>
		<path class="st2" d="M30.72,39.66c-0.09,0.23-0.11,0.43,0.03,0.51c0.43,0.24,1.2,0.19,1.53-0.24c0.33-0.43,1.2-0.46,1.2-0.46
			s0.86,0.03,1.2,0.46c0.33,0.43,1.1,0.48,1.53,0.24c0.14-0.08,0.12-0.28,0.03-0.51c-0.26-0.64-0.86-1.07-1.55-1.16l-1.21-0.15
			l-1.21,0.15C31.59,38.59,30.98,39.02,30.72,39.66z"/>
		<path class="st4" d="M42.37,34.29c0.05,1.63-0.48,2.44-0.48,2.44s-1.15-1.48-1.72-1.82c-0.57-0.33-2.39,0.57-2.3,1.05
			c0.1,0.48,1.39,2.63,1.39,2.63s-1.39-1.43-2.25-2.06c-0.86-0.62-3.01-0.57-3.01-0.57c-0.62,1.72,1.48,1.58,2.01,1.86
			c0.53,0.29,1.29,1.96,1.24,2.44c-0.05,0.48-1.15,0.86-1.15,0.86c0.33,0.33,0.57,1.24,0.57,1.24c-1.48-1.58-3.2-1.39-3.2-1.39
			s-1.72-0.19-3.2,1.39c0,0,0.24-0.91,0.57-1.24c0,0-1.1-0.38-1.15-0.86c-0.05-0.48,0.72-2.15,1.24-2.44
			c0.53-0.29,2.63-0.14,2.01-1.86c0,0-2.15-0.05-3.01,0.57c-0.86,0.62-2.25,2.06-2.25,2.06s1.29-2.15,1.39-2.63
			c0.1-0.48-1.72-1.39-2.29-1.05c-0.57,0.33-1.72,1.82-1.72,1.82s-0.53-0.81-0.48-2.44c0,0-1.24,3.49-0.53,6.55
			c0,0,0.38-1.96,0.86-2.44c0,0,1.2,5.93,4.83,8.03c0,0-0.43-1.39,0-2.58c0,0,1.15,4.06,3.73,4.78c2.58-0.72,3.73-4.78,3.73-4.78
			c0.43,1.2,0,2.58,0,2.58c3.63-2.1,4.83-8.03,4.83-8.03c0.48,0.48,0.86,2.44,0.86,2.44C43.62,37.78,42.37,34.29,42.37,34.29z"/>
		<path class="st5" d="M25.06,27.89c0,0,0.29,2.48,0.96,2.96c0.67,0.48,2.82,0.19,2.82,0.19v1.43c0,0,2.53-1.53,2.44-0.77
			c-0.1,0.77-1.92,1.96-1.41,2.58c0,0-1.98-1.35-2.84-1.1c-0.86,0.25-2.74-2.46-2.85-2.9C24.06,29.84,23.58,29.28,25.06,27.89z"/>
		<path class="st5" d="M41.89,27.89c0,0-0.29,2.48-0.96,2.96c-0.67,0.48-2.82,0.19-2.82,0.19v1.43c0,0-2.53-1.53-2.44-0.77
			c0.1,0.77,1.92,1.96,1.41,2.58c0,0,1.98-1.35,2.84-1.1c0.86,0.25,2.74-2.46,2.85-2.9C42.9,29.84,43.38,29.28,41.89,27.89z"/>
		<g>
			<path class="st5" d="M31.33,26.69c0,0,0.29-1,0-1.31c0,0,1.24-0.41,2.15,0.21v0h0l0,0v0c0.91-0.62,2.15-0.21,2.15-0.21
				c-0.29,0.31,0,1.31,0,1.31c1.15-1.48,5.08-2.34,5.08-2.34v-1.1c-3.58-1.86-7.23-0.69-7.23-0.69s-3.65-1.18-7.23,0.69v1.1
				C26.25,24.34,30.18,25.2,31.33,26.69z"/>
			<path class="st6" d="M42.37,34.29c0,0,0.33,2.96,0.21,3.57c0,0-2.14-2.58-2.77-2.23c-0.64,0.35-0.83,1.47-0.83,1.47l0.29,1.5
				c0,0-1.8-2.32-2.96-2.37c-1.16-0.05-1.76,0.08-1.54,0.43c0.22,0.35,2.33,1.15,2.33,1.15s1.12,2.04,0.61,2.87
				c-0.51,0.83-0.73,0.99-0.73,0.99l0.22,1.24c0,0-1.56-1.31-3.71-1.31l0,0l0,0h0l0,0c-2.15,0-3.71,1.31-3.71,1.31l0.22-1.24
				c0,0-0.22-0.16-0.73-0.99c-0.51-0.83,0.61-2.87,0.61-2.87s2.1-0.8,2.33-1.15c0.22-0.35-0.38-0.48-1.54-0.43
				c-1.16,0.05-2.96,2.37-2.96,2.37l0.29-1.5c0,0-0.19-1.12-0.83-1.47c-0.64-0.35-2.77,2.23-2.77,2.23
				c-0.13-0.61,0.21-3.57,0.21-3.57c-1.55,3.73-0.53,6.55-0.53,6.55l0.86-2.44c1.24,5.71,3.99,6.73,3.99,6.73
				c0.03-0.7,0.84-1.28,0.84-1.28c0.81,2.68,3.73,3.7,3.73,3.7l0,0h0l0,0l0,0c0,0,2.92-1.02,3.73-3.7c0,0,0.8,0.58,0.84,1.28
				c0,0,2.75-1.02,3.99-6.73l0.86,2.44C42.9,40.84,43.92,38.02,42.37,34.29z"/>
		</g>
		<path class="st7" d="M47.94,12.1c0,0-3.12,2.39-3.55,3.16c0,0,0.33,3.3-0.96,3.78s-8.46-2.58-8.8-3.68
			c-0.33-1.1-0.57,4.35-0.57,4.35s6.65,0.11,9.8,2.85L47.94,12.1z"/>
		<path class="st8" d="M30.75,19.85c-0.01-0.06-0.01-0.14,0-0.22c0.12-1.15,1.85-4.25,2.34-5.94c0.53-1.82-1.15-2.73-1.15-2.73
			c-0.33-1.82,1.53-5.61,1.53-5.61s-3.04,3.95-2.98,6.5c0,0,1.59,0.64,1.4,2.1c-0.19,1.47-7.01,5.48-8.06,4.08
			c-1.05-1.4-0.41-1.72,0.22-2.68c0,0-2.42-2.36-5.04-3.25l4.08,10.46C24.35,20.85,30.75,19.85,30.75,19.85z"/>
		<path class="st9" d="M19.02,12.1c0,0,3.6,2.92,3.46,3.49c-0.14,0.57-0.13,3.06,1.25,3.78c1.38,0.72,5.06-0.19,7.02,0.48
			c0,0-5.26,0.64-7.65,2.71L19.02,12.1z"/>
	</g>
</g>
<g>
	<path class="st0" d="M15.28,51.75v5.62h-1.3v-2.3h-2.55v2.3h-1.3v-5.62h1.3v2.22h2.55v-2.22H15.28z"/>
	<path class="st0" d="M20.31,56.17h-2.61l-0.5,1.2h-1.33l2.5-5.62h1.28l2.51,5.62h-1.36L20.31,56.17z M19.9,55.18l-0.89-2.15
		l-0.89,2.15H19.9z"/>
	<path class="st0" d="M27.31,56.31v1.06H22.4v-0.84l3.08-3.72h-3.02v-1.06h4.73v0.84l-3.07,3.72H27.31z"/>
	<path class="st0" d="M32.5,56.33v1.04h-4.35v-5.62h4.25v1.04h-2.95v1.22h2.61v1.01h-2.61v1.3H32.5z"/>
	<path class="st0" d="M37.74,54.56h0.57v2.14c-0.53,0.47-1.28,0.71-2.06,0.71c-1.71,0-2.96-1.21-2.96-2.86
		c0-1.65,1.25-2.86,2.97-2.86c0.85,0,1.59,0.27,2.09,0.81l-0.37,0.38c-0.47-0.47-1.04-0.66-1.69-0.66c-1.39,0-2.41,0.99-2.41,2.33
		c0,1.33,1.02,2.33,2.4,2.33c0.54,0,1.04-0.12,1.47-0.43V54.56z"/>
	<path class="st0" d="M43.51,55.87h-3.13l-0.67,1.5h-0.62l2.57-5.62h0.59l2.57,5.62h-0.63L43.51,55.87z M43.3,55.39l-1.35-3.02
		l-1.35,3.02H43.3z"/>
	<path class="st0" d="M50.44,51.75v5.62h-0.49l-3.61-4.56v4.56h-0.59v-5.62h0.49l3.62,4.56v-4.56H50.44z"/>
	<path class="st0" d="M56.23,54.56h0.57v2.14c-0.53,0.47-1.28,0.71-2.06,0.71c-1.71,0-2.96-1.21-2.96-2.86
		c0-1.65,1.25-2.86,2.97-2.86c0.85,0,1.59,0.27,2.09,0.81l-0.37,0.38c-0.47-0.47-1.04-0.66-1.69-0.66c-1.39,0-2.41,0.99-2.41,2.33
		c0,1.33,1.02,2.33,2.4,2.33c0.54,0,1.04-0.12,1.47-0.43V54.56z"/>
</g>
<circle class="st10" cx="33.48" cy="34.92" r="900"/>
</svg>
